<?xml version="1.0" encoding="UTF-8" standalone="no"?>
<!DOCTYPE svg PUBLIC "-//W3C//DTD SVG 1.0//EN" "http://www.w3.org/TR/2001/REC-SVG-20010904/DTD/svg10.dtd">
<!-- Generated by Microsoft Visio 11.0, SVG Export, v1.0 ecology ,  icon , quatrefoil.svg Page-1 -->
<svg xmlns="http://www.w3.org/2000/svg" xmlns:xlink="http://www.w3.org/1999/xlink" xmlns:ev="http://www.w3.org/2001/xml-events"
		xmlns:v="http://schemas.microsoft.com/visio/2003/SVGExtensions/" width="7.43782in" height="7.27299in"
		viewBox="0 0 535.523 523.655" xml:space="preserve" color-interpolation-filters="sRGB" class="st2">
	<v:documentProperties v:langID="1033" v:viewMarkup="false"/>

	<style type="text/css">
	<![CDATA[
		.st1 {fill:#0089ee;stroke:none;stroke-linecap:butt;stroke-width:1.00328}
		.st2 {fill:none;fill-rule:evenodd;font-size:12px;overflow:visible;stroke-linecap:square;stroke-miterlimit:3}
	]]>
	</style>

	<g v:mID="0" v:index="1" v:groupContext="foregroundPage">
		<title>Page-1</title>
		<v:pageProperties v:drawingScale="1" v:pageScale="1" v:drawingUnits="19" v:shadowOffsetX="9" v:shadowOffsetY="-9"/>
		<g id="shape2-1" v:mID="2" v:groupContext="shape">
			<title>path14007</title>
			<path d="M262.25 2.73 C246.04 3.36 224.17 12.39 207.02 49.42 C151.45 0 107.25 57.77 107.11 58.04 C83.62 104 128.69 171.1
						 195.91 216.96 C114.57 190.13 41.48 198 20.81 246.73 C19.85 248.99 0 295.58 67.58 322.01 C21.64 380.49 81.95
						 421.07 82.23 421.19 C128.25 441.27 190.27 395.37 231.97 328.53 C204.21 408.04 210.67 479.96 258.3 501.62
						 C260.53 502.63 306.55 523.66 334.69 456.78 C391.98 504.21 434.07 444.98 434.2 444.7 C456.15 397.74 408.24
						 331.81 338.96 288.36 C418.55 317.16 490.94 311.57 513.09 263.97 C514.13 261.74 535.52 215.9 468.89 187.17
						 C516.83 130.3 457.98 87.63 457.7 87.5 C414.26 66.73 353.97 106.1 310.3 167.04 C335.06 94.18 328.94 29.23
						 284.94 7.32 C283.98 6.84 274.84 2.24 262.24 2.73 L262.25 2.73 Z" class="st1"/>
		</g>
	</g>
</svg>
