<?xml version="1.0" encoding="UTF-8" standalone="no"?>
<!DOCTYPE svg PUBLIC "-//W3C//DTD SVG 1.0//EN" "http://www.w3.org/TR/2001/REC-SVG-20010904/DTD/svg10.dtd">
<!-- Generated by Microsoft Visio 11.0, SVG Export, v1.0 grain flour cereal sprig wheat agriculture fruit fruits organic food diet vegan vegetarian cherries.svg Page-1 -->
<svg xmlns="http://www.w3.org/2000/svg" xmlns:xlink="http://www.w3.org/1999/xlink" xmlns:ev="http://www.w3.org/2001/xml-events"
		xmlns:v="http://schemas.microsoft.com/visio/2003/SVGExtensions/" width="0.937635in" height="1.18956in"
		viewBox="0 0 67.5097 85.6482" xml:space="preserve" color-interpolation-filters="sRGB" class="st3">
	<v:documentProperties v:langID="4105" v:viewMarkup="false"/>

	<style type="text/css">
	<![CDATA[
		.st1 {fill:#0089ee;stroke:#0089ee;stroke-linecap:round;stroke-linejoin:round;stroke-width:1.5}
		.st2 {stroke:#0089ee;stroke-linecap:round;stroke-linejoin:round;stroke-width:1.5}
		.st3 {fill:none;fill-rule:evenodd;font-size:12px;overflow:visible;stroke-linecap:square;stroke-miterlimit:3}
	]]>
	</style>

	<g v:mID="0" v:index="1" v:groupContext="foregroundPage">
		<title>Page-1</title>
		<v:pageProperties v:drawingScale="1" v:pageScale="1" v:drawingUnits="19" v:shadowOffsetX="9" v:shadowOffsetY="-9"/>
		<g id="group1675-1" transform="translate(42.8241,-4.16636) rotate(30)" v:mID="1675" v:groupContext="group">
			<title>Sheet.1675</title>
			<g id="shape1676-2" v:mID="1676" v:groupContext="shape" transform="translate(90.243,30.1438) rotate(60)">
				<title>Sheet.1676</title>
				<path d="M2.54 85.65 C5.65 84.26 6.16 80.28 5.87 77.47 C5.74 76.17 5.44 75.12 4.8 72.57 C4.57 71.63 4.29 70.49 4
							 70.4 C3.86 70.35 3.72 70.56 3.58 70.78 C2.37 72.57 0.89 74.84 0.31 77.29 C-0.31 79.92 0.1 82.77 0.72
							 83.98 C0.92 84.35 1.13 84.57 1.24 84.71 C1.29 84.77 1.32 84.82 1.57 85.03 C1.87 85.28 2.51 85.77 2.54
							 85.65 Z" class="st1"/>
			</g>
			<g id="shape1677-4" v:mID="1677" v:groupContext="shape" transform="translate(-70.007,85.4984) rotate(-89.8998)">
				<title>Sheet.1677</title>
				<path d="M0 85.65 L65.52 85.65" class="st2"/>
			</g>
			<g id="shape1678-7" v:mID="1678" v:groupContext="shape" transform="translate(89.669,18.265) rotate(60)">
				<title>Sheet.1678</title>
				<path d="M2.54 85.65 C5.65 84.26 6.16 80.28 5.87 77.47 C5.74 76.17 5.44 75.12 4.8 72.57 C4.57 71.63 4.29 70.49 4
							 70.4 C3.86 70.35 3.72 70.56 3.58 70.78 C2.37 72.57 0.89 74.84 0.31 77.29 C-0.31 79.92 0.1 82.77 0.72
							 83.98 C0.92 84.35 1.13 84.57 1.24 84.71 C1.29 84.77 1.32 84.82 1.57 85.03 C1.87 85.28 2.51 85.77 2.54
							 85.65 Z" class="st1"/>
			</g>
			<g id="shape1679-9" v:mID="1679" v:groupContext="shape" transform="translate(89.669,5.41673) rotate(60)">
				<title>Sheet.1679</title>
				<path d="M2.54 85.65 C5.65 84.26 6.16 80.28 5.87 77.47 C5.74 76.17 5.44 75.12 4.8 72.57 C4.57 71.63 4.29 70.49 4
							 70.4 C3.86 70.35 3.72 70.56 3.58 70.78 C2.37 72.57 0.89 74.84 0.31 77.29 C-0.31 79.92 0.1 82.77 0.72
							 83.98 C0.92 84.35 1.13 84.57 1.24 84.71 C1.29 84.77 1.32 84.82 1.57 85.03 C1.87 85.28 2.51 85.77 2.54
							 85.65 Z" class="st1"/>
			</g>
			<g id="shape1680-11" v:mID="1680" v:groupContext="shape" transform="translate(89.669,-6.25971) rotate(60)">
				<title>Sheet.1680</title>
				<path d="M2.54 85.65 C5.65 84.26 6.16 80.28 5.87 77.47 C5.74 76.17 5.44 75.12 4.8 72.57 C4.57 71.63 4.29 70.49 4
							 70.4 C3.86 70.35 3.72 70.56 3.58 70.78 C2.37 72.57 0.89 74.84 0.31 77.29 C-0.31 79.92 0.1 82.77 0.72
							 83.98 C0.92 84.35 1.13 84.57 1.24 84.71 C1.29 84.77 1.32 84.82 1.57 85.03 C1.87 85.28 2.51 85.77 2.54
							 85.65 Z" class="st1"/>
			</g>
			<g id="shape1681-13" v:mID="1681" v:groupContext="shape" transform="translate(89.669,-19.108) rotate(60)">
				<title>Sheet.1681</title>
				<path d="M2.54 85.65 C5.65 84.26 6.16 80.28 5.87 77.47 C5.74 76.17 5.44 75.12 4.8 72.57 C4.57 71.63 4.29 70.49 4
							 70.4 C3.86 70.35 3.72 70.56 3.58 70.78 C2.37 72.57 0.89 74.84 0.31 77.29 C-0.31 79.92 0.1 82.77 0.72
							 83.98 C0.92 84.35 1.13 84.57 1.24 84.71 C1.29 84.77 1.32 84.82 1.57 85.03 C1.87 85.28 2.51 85.77 2.54
							 85.65 Z" class="st1"/>
			</g>
			<g id="shape1682-15" v:mID="1682" v:groupContext="shape"
					transform="translate(-58.9609,30.0427) rotate(-60) scale(-1,1)">
				<title>Sheet.1682</title>
				<path d="M2.54 85.65 C5.65 84.26 6.16 80.28 5.87 77.47 C5.74 76.17 5.44 75.12 4.8 72.57 C4.57 71.63 4.29 70.49 4
							 70.4 C3.86 70.35 3.72 70.56 3.58 70.78 C2.37 72.57 0.89 74.84 0.31 77.29 C-0.31 79.92 0.1 82.77 0.72
							 83.98 C0.92 84.35 1.13 84.57 1.24 84.71 C1.29 84.77 1.32 84.82 1.57 85.03 C1.87 85.28 2.51 85.77 2.54
							 85.65 Z" class="st1"/>
			</g>
			<g id="shape1683-17" v:mID="1683" v:groupContext="shape"
					transform="translate(-58.3869,18.1639) rotate(-60) scale(-1,1)">
				<title>Sheet.1683</title>
				<path d="M2.54 85.65 C5.65 84.26 6.16 80.28 5.87 77.47 C5.74 76.17 5.44 75.12 4.8 72.57 C4.57 71.63 4.29 70.49 4
							 70.4 C3.86 70.35 3.72 70.56 3.58 70.78 C2.37 72.57 0.89 74.84 0.31 77.29 C-0.31 79.92 0.1 82.77 0.72
							 83.98 C0.92 84.35 1.13 84.57 1.24 84.71 C1.29 84.77 1.32 84.82 1.57 85.03 C1.87 85.28 2.51 85.77 2.54
							 85.65 Z" class="st1"/>
			</g>
			<g id="shape1684-19" v:mID="1684" v:groupContext="shape"
					transform="translate(-58.3869,5.31555) rotate(-60) scale(-1,1)">
				<title>Sheet.1684</title>
				<path d="M2.54 85.65 C5.65 84.26 6.16 80.28 5.87 77.47 C5.74 76.17 5.44 75.12 4.8 72.57 C4.57 71.63 4.29 70.49 4
							 70.4 C3.86 70.35 3.72 70.56 3.58 70.78 C2.37 72.57 0.89 74.84 0.31 77.29 C-0.31 79.92 0.1 82.77 0.72
							 83.98 C0.92 84.35 1.13 84.57 1.24 84.71 C1.29 84.77 1.32 84.82 1.57 85.03 C1.87 85.28 2.51 85.77 2.54
							 85.65 Z" class="st1"/>
			</g>
			<g id="shape1685-21" v:mID="1685" v:groupContext="shape"
					transform="translate(-58.3869,-6.36089) rotate(-60) scale(-1,1)">
				<title>Sheet.1685</title>
				<path d="M2.54 85.65 C5.65 84.26 6.16 80.28 5.87 77.47 C5.74 76.17 5.44 75.12 4.8 72.57 C4.57 71.63 4.29 70.49 4
							 70.4 C3.86 70.35 3.72 70.56 3.58 70.78 C2.37 72.57 0.89 74.84 0.31 77.29 C-0.31 79.92 0.1 82.77 0.72
							 83.98 C0.92 84.35 1.13 84.57 1.24 84.71 C1.29 84.77 1.32 84.82 1.57 85.03 C1.87 85.28 2.51 85.77 2.54
							 85.65 Z" class="st1"/>
			</g>
			<g id="shape1686-23" v:mID="1686" v:groupContext="shape"
					transform="translate(-58.3869,-19.2092) rotate(-60) scale(-1,1)">
				<title>Sheet.1686</title>
				<path d="M2.54 85.65 C5.65 84.26 6.16 80.28 5.87 77.47 C5.74 76.17 5.44 75.12 4.8 72.57 C4.57 71.63 4.29 70.49 4
							 70.4 C3.86 70.35 3.72 70.56 3.58 70.78 C2.37 72.57 0.89 74.84 0.31 77.29 C-0.31 79.92 0.1 82.77 0.72
							 83.98 C0.92 84.35 1.13 84.57 1.24 84.71 C1.29 84.77 1.32 84.82 1.57 85.03 C1.87 85.28 2.51 85.77 2.54
							 85.65 Z" class="st1"/>
			</g>
			<g id="shape1687-25" v:mID="1687" v:groupContext="shape" transform="translate(5.75752,-64.9695) rotate(-5)">
				<title>Sheet.1687</title>
				<path d="M2.54 85.65 C5.65 84.26 6.16 80.28 5.87 77.47 C5.74 76.17 5.44 75.12 4.8 72.57 C4.57 71.63 4.29 70.49 4
							 70.4 C3.86 70.35 3.72 70.56 3.58 70.78 C2.37 72.57 0.89 74.84 0.31 77.29 C-0.31 79.92 0.1 82.77 0.72
							 83.98 C0.92 84.35 1.13 84.57 1.24 84.71 C1.29 84.77 1.32 84.82 1.57 85.03 C1.87 85.28 2.51 85.77 2.54
							 85.65 Z" class="st1"/>
			</g>
		</g>
	</g>
</svg>
