<?xml version="1.0" encoding="UTF-8" standalone="no"?>
<!DOCTYPE svg PUBLIC "-//W3C//DTD SVG 1.0//EN" "http://www.w3.org/TR/2001/REC-SVG-20010904/DTD/svg10.dtd">
<!-- Generated by Microsoft Visio 11.0, SVG Export, v1.0 exp20160624_37-plant.svg Page-1 -->
<svg xmlns="http://www.w3.org/2000/svg" xmlns:xlink="http://www.w3.org/1999/xlink" xmlns:ev="http://www.w3.org/2001/xml-events"
		xmlns:v="http://schemas.microsoft.com/visio/2003/SVGExtensions/" width="1.02778in" height="2.01542in"
		viewBox="0 0 74.0001 145.11" xml:space="preserve" color-interpolation-filters="sRGB" class="st3">
	<v:documentProperties v:langID="1033" v:viewMarkup="false"/>

	<style type="text/css">
	<![CDATA[
		.st1 {fill:#2a8fff;stroke:#2a8fff;stroke-linecap:butt;stroke-width:1}
		.st2 {stroke:#2a8fff;stroke-linecap:round;stroke-linejoin:round;stroke-width:2.25}
		.st3 {fill:none;fill-rule:evenodd;font-size:12px;overflow:visible;stroke-linecap:square;stroke-miterlimit:3}
	]]>
	</style>

	<g v:mID="0" v:index="1" v:groupContext="foregroundPage">
		<title>Page-1</title>
		<v:pageProperties v:drawingScale="1" v:pageScale="1" v:drawingUnits="19" v:shadowOffsetX="9.00001"
				v:shadowOffsetY="-9.00001"/>
		<g id="shape4-1" v:mID="4" v:groupContext="shape" transform="translate(-56.3101,-83.5805) rotate(-30)">
			<title>path4089</title>
			<path d="M26.29 141.02 C26.29 141.45 16.17 145.11 10.42 143.3 C4.66 141.49 0 136.88 0 133 C0 129.11 4.66 127.43 10.42
						 129.24 C16.17 131.04 26.29 141.02 26.29 141.02 Z" class="st1"/>
		</g>
		<g id="shape5-3" v:mID="5" v:groupContext="shape" transform="translate(-32.4296,-97.3679) rotate(-30)">
			<title>path4091</title>
			<path d="M0 141.02 C-0 141.45 10 145.11 15.69 143.3 C21.37 141.49 25.98 136.88 25.98 133 C25.98 129.11 21.37 127.43 15.69
						 129.24 C10 131.04 -0 141.02 0 141.02 Z" class="st1"/>
		</g>
		<g id="shape6-5" v:mID="6" v:groupContext="shape" transform="translate(-30.805,-75.7672) rotate(-30)">
			<title>path4093</title>
			<path d="M8.53 120.64 C8.97 120.62 14.86 129.52 14.37 134.83 C13.89 140.14 10.39 144.65 6.55 144.89 C2.71 145.11 -0 141.03
						 0.48 135.73 C0.97 130.42 8.53 120.64 8.53 120.64 Z" class="st1"/>
		</g>
		<g id="shape7-7" v:mID="7" v:groupContext="shape" transform="translate(-41.4888,-96.8257) rotate(-30)">
			<title>path4095</title>
			<path d="M7.26 145.08 C6.82 145.11 0.07 136.2 0.04 130.89 C0 125.58 3.06 121.08 6.87 120.83 C10.69 120.62 13.8 124.69
						 13.84 130 C13.87 135.31 7.26 145.08 7.26 145.08 Z" class="st1"/>
		</g>
		<g id="shape34-9" v:mID="34" v:groupContext="shape" transform="translate(1,0)">
			<title>rect4101</title>
			<path d="M0 78.3 L72 78.3 L55.79 140.15 C39.09 145.11 27.72 143.04 16.96 140.15 L0 78.3 Z" class="st1"/>
		</g>
		<g id="shape35-11" v:mID="35" v:groupContext="shape" transform="translate(177.539,22.6041) rotate(87.8304)">
			<title>Sheet.35</title>
			<path d="M0 141.44 C3.02 142.83 6.85 145.2 10.48 145.11 C15.94 144.97 20.96 139.25 26.23 136.05 C30.75 133.31 35.44 132.44
						 40.18 134.08 C42.46 134.87 44.75 136.24 46.75 137.45 C49.45 139.07 51.63 140.39 54.19 141.44" class="st2"/>
		</g>
	</g>
</svg>
