<?xml version="1.0" encoding="UTF-8" standalone="no"?>
<!DOCTYPE svg PUBLIC "-//W3C//DTD SVG 1.0//EN" "http://www.w3.org/TR/2001/REC-SVG-20010904/DTD/svg10.dtd">
<!-- Generated by Microsoft Visio 11.0, SVG Export, v1.0 vertical-align-bottom building structures.svg Page-1 -->
<svg xmlns="http://www.w3.org/2000/svg" xmlns:xlink="http://www.w3.org/1999/xlink" xmlns:ev="http://www.w3.org/2001/xml-events"
		xmlns:v="http://schemas.microsoft.com/visio/2003/SVGExtensions/" width="1.02083in" height="1.02083in"
		viewBox="0 0 73.5 73.5" xml:space="preserve" color-interpolation-filters="sRGB" class="st2">
	<v:documentProperties v:langID="4105" v:viewMarkup="false"/>

	<style type="text/css">
	<![CDATA[
		.st1 {fill:#0089ee;stroke:none;stroke-linecap:butt;stroke-width:0.75}
		.st2 {fill:none;fill-rule:evenodd;font-size:12px;overflow:visible;stroke-linecap:square;stroke-miterlimit:3}
	]]>
	</style>

	<g v:mID="0" v:index="1" v:groupContext="foregroundPage">
		<title>Page-1</title>
		<v:pageProperties v:drawingScale="1" v:pageScale="1" v:drawingUnits="19" v:shadowOffsetX="9" v:shadowOffsetY="-9"/>
		<g id="group1-1" transform="translate(0.75,-0.75)" v:mID="1" v:groupContext="group">
			<title>Sheet.1</title>
			<g id="shape2-2" v:mID="2" v:groupContext="shape">
				<title>Sheet.2</title>
				<path d="M0.81 1.5 C0.27 1.5 -0 1.91 0 2.43 L0 51.9 C-0 52.41 0.36 52.83 0.81 52.83 L17.1 52.83 C17.55 52.83 17.91
							 52.41 17.91 51.9 L17.91 2.43 C17.91 1.81 17.55 1.5 17.1 1.5 L0.81 1.5 ZM54.81 1.5 C54.36 1.5 54 1.91
							 54 2.43 L54 51.9 C54 52.41 54.36 52.83 54.81 52.83 L71.1 52.83 C71.55 52.83 71.91 52.41 71.91 51.9 L71.91
							 2.43 C71.91 1.81 71.55 1.5 71.1 1.5 L54.81 1.5 ZM27.81 22.07 C27.27 22.07 27 22.48 27 23 L27 51.9 C27
							 52.41 27.36 52.83 27.81 52.83 L44.1 52.83 C44.55 52.83 44.91 52.41 44.91 51.9 L44.91 23 C44.91 22.38
							 44.55 22.07 44.1 22.07 L27.81 22.07 ZM0 63.21 L0 73.5 L72 73.5 L72 63.21 L0 63.21 Z" class="st1"/>
			</g>
		</g>
	</g>
</svg>
