<?xml version="1.0" encoding="UTF-8" standalone="no"?>
<!DOCTYPE svg PUBLIC "-//W3C//DTD SVG 1.0//EN" "http://www.w3.org/TR/2001/REC-SVG-20010904/DTD/svg10.dtd">
<!-- Generated by Microsoft Visio 11.0, SVG Export, v1.0 exp20160624_72-highrise_skyscapper_building_multistory_real_state.svg Page-1 -->
<svg xmlns="http://www.w3.org/2000/svg" xmlns:xlink="http://www.w3.org/1999/xlink" xmlns:ev="http://www.w3.org/2001/xml-events"
		xmlns:v="http://schemas.microsoft.com/visio/2003/SVGExtensions/" width="2.77083in" height="2.52083in"
		viewBox="0 0 199.5 181.5" xml:space="preserve" color-interpolation-filters="sRGB" class="st2">
	<v:documentProperties v:langID="4105" v:viewMarkup="false"/>

	<style type="text/css">
	<![CDATA[
		.st1 {fill:#2a8fff;stroke:#2a8fff;stroke-linecap:round;stroke-linejoin:round;stroke-width:0.75}
		.st2 {fill:none;fill-rule:evenodd;font-size:12px;overflow:visible;stroke-linecap:square;stroke-miterlimit:3}
	]]>
	</style>

	<g v:mID="0" v:index="1" v:groupContext="foregroundPage">
		<title>Page-1</title>
		<v:pageProperties v:drawingScale="1" v:pageScale="1" v:drawingUnits="19" v:shadowOffsetX="9" v:shadowOffsetY="-9"/>
		<g id="shape1-1" v:mID="1" v:groupContext="shape" transform="translate(0.75,-0.75)">
			<title>Sheet.1</title>
			<rect x="0" y="55.5" width="37.125" height="126" class="st1"/>
		</g>
		<g id="shape2-3" v:mID="2" v:groupContext="shape" transform="translate(45.75,-0.75)">
			<title>Sheet.2</title>
			<path d="M0 181.5 L0 109.5 L10.71 109.5 L10.71 73.5 L21.43 73.5 L21.43 37.5 L31.29 37.5 L31.29 1.5 L41.14 1.5 L41.14
						 37.5 L51 37.5 L51 73.5 L61.71 73.5 L61.71 109.5 L72 109.5 L72 181.5 L0 181.5 Z" class="st1"/>
		</g>
		<g id="shape3-5" v:mID="3" v:groupContext="shape" transform="translate(126.75,-0.75)">
			<title>Sheet.3</title>
			<path d="M0 19.5 L0 181.5 L72 181.5 L72 109.5 L54 109.5 L54 73.5 L36 73.5 L36 19.5 L0 19.5 Z" class="st1"/>
		</g>
	</g>
</svg>
