<?xml version="1.0" encoding="UTF-8" standalone="no"?>
<!DOCTYPE svg PUBLIC "-//W3C//DTD SVG 1.0//EN" "http://www.w3.org/TR/2001/REC-SVG-20010904/DTD/svg10.dtd">
<!-- Generated by Microsoft Visio 11.0, SVG Export, v1.0 vertical-align-top MIT building structures.svg Page-1 -->
<svg xmlns="http://www.w3.org/2000/svg" xmlns:xlink="http://www.w3.org/1999/xlink" xmlns:ev="http://www.w3.org/2001/xml-events"
		xmlns:v="http://schemas.microsoft.com/visio/2003/SVGExtensions/" width="1.02083in" height="1.02083in"
		viewBox="0 0 73.5 73.5" xml:space="preserve" color-interpolation-filters="sRGB" class="st2">
	<v:documentProperties v:langID="4105" v:viewMarkup="false"/>

	<style type="text/css">
	<![CDATA[
		.st1 {fill:#0089ee;stroke:none;stroke-linecap:butt;stroke-width:0.75}
		.st2 {fill:none;fill-rule:evenodd;font-size:12px;overflow:visible;stroke-linecap:square;stroke-miterlimit:3}
	]]>
	</style>

	<g v:mID="0" v:index="1" v:groupContext="foregroundPage">
		<title>Page-1</title>
		<v:pageProperties v:drawingScale="1" v:pageScale="1" v:drawingUnits="19" v:shadowOffsetX="9" v:shadowOffsetY="-9"/>
		<g id="group1-1" transform="translate(0.75,-0.75)" v:mID="1" v:groupContext="group">
			<title>Sheet.1</title>
			<g id="shape2-2" v:mID="2" v:groupContext="shape">
				<title>Sheet.2</title>
				<path d="M0 1.5 L0 11.8 L72 11.8 L72 1.5 L0 1.5 ZM0.81 22.1 C0.27 22.1 -0 22.51 0 23.03 L0 72.57 C-0 73.09 0.36 73.5
							 0.81 73.5 L17.1 73.5 C17.55 73.5 17.91 73.09 17.91 72.57 L17.91 23.03 C17.91 22.41 17.55 22.1 17.1 22.1
							 L0.81 22.1 ZM27.81 22.1 C27.27 22.1 27 22.51 27 23.03 L27 51.97 C27 52.49 27.36 52.9 27.81 52.9 L44.1
							 52.9 C44.55 52.9 44.91 52.49 44.91 51.97 L44.91 23.03 C44.91 22.41 44.55 22.1 44.1 22.1 L27.81 22.1
							 ZM54.81 22.1 C54.36 22.1 54 22.51 54 23.03 L54 72.57 C54 73.09 54.36 73.5 54.81 73.5 L71.1 73.5 C71.55
							 73.5 71.91 73.09 71.91 72.57 L71.91 23.03 C71.91 22.41 71.55 22.1 71.1 22.1 L54.81 22.1 Z" class="st1"/>
			</g>
		</g>
	</g>
</svg>
