<?xml version="1.0" encoding="UTF-8" standalone="no"?>
<!DOCTYPE svg PUBLIC "-//W3C//DTD SVG 1.0//EN" "http://www.w3.org/TR/2001/REC-SVG-20010904/DTD/svg10.dtd">
<!-- Generated by Microsoft Visio 11.0, SVG Export, v1.0 prison-jail.svg Page-1 -->
<svg xmlns="http://www.w3.org/2000/svg" xmlns:xlink="http://www.w3.org/1999/xlink" xmlns:ev="http://www.w3.org/2001/xml-events"
		xmlns:v="http://schemas.microsoft.com/visio/2003/SVGExtensions/" width="1in" height="1in" viewBox="0 0 72 72"
		xml:space="preserve" color-interpolation-filters="sRGB" class="st4">
	<v:documentProperties v:langID="4105" v:viewMarkup="false"/>

	<style type="text/css">
	<![CDATA[
		.st1 {fill:none;stroke:#ffffff;stroke-linecap:round;stroke-linejoin:round;stroke-opacity:0.3;stroke-width:1.5}
		.st2 {fill:#0089ee;stroke:none;stroke-linecap:butt;stroke-width:0.75}
		.st3 {fill:none;stroke:none;stroke-linecap:butt;stroke-width:0.75;visibility:hidden}
		.st4 {fill:none;fill-rule:evenodd;font-size:12px;overflow:visible;stroke-linecap:square;stroke-miterlimit:3}
	]]>
	</style>

	<g v:mID="0" v:index="1" v:groupContext="foregroundPage">
		<title>Page-1</title>
		<v:pageProperties v:drawingScale="1" v:pageScale="1" v:drawingUnits="19" v:shadowOffsetX="9" v:shadowOffsetY="-9"/>
		<g id="group1-1" v:mID="1" v:groupContext="group">
			<title>Sheet.1</title>
			<g id="group2-2" transform="translate(12,-15)" v:mID="2" v:groupContext="group">
				<title>g5143</title>
				<g id="shape3-3" v:mID="3" v:groupContext="shape">
					<title>path4517</title>
					<path d="M3 27 C1.34 27 -0 28.34 0 30 L0 39 L0 60 L0 69 C-0 70.66 1.34 72 3 72 C4.66 72 6 70.66 6 69 L6 63 L15
								 63 L15 69 C15 70.66 16.34 72 18 72 C19.66 72 21 70.66 21 69 L21 63 L30 63 L30 69 C30 70.66 31.34
								 72 33 72 C34.66 72 36 70.66 36 69 L36 63 L45 63 L45 69 C45 70.66 46.34 72 48 72 C49.66 72 51 70.66
								 51 69 L51 30 C51 28.34 49.66 27 48 27 C46.34 27 45 28.34 45 30 L45 36 L36 36 L36 30 C36 28.34 34.66
								 27 33 27 C31.34 27 30 28.34 30 30 L30 36 L21 36 L21 30 C21 28.34 19.66 27 18 27 C16.34 27 15 28.34
								 15 30 L15 36 L6 36 L6 30 C6 28.34 4.66 27 3 27 ZM6 42 L15 42 L15 57 L6 57 L6 42 ZM21 42 L30 42 L30
								 57 L21 57 L21 42 ZM36 42 L45 42 L45 57 L36 57 L36 42 Z" class="st1"/>
				</g>
				<g id="shape4-5" v:mID="4" v:groupContext="shape">
					<title>rect4496</title>
					<path d="M3 27 C1.34 27 -0 28.34 0 30 L0 39 L0 60 L0 69 C-0 70.66 1.34 72 3 72 C4.66 72 6 70.66 6 69 L6 63 L15
								 63 L15 69 C15 70.66 16.34 72 18 72 C19.66 72 21 70.66 21 69 L21 63 L30 63 L30 69 C30 70.66 31.34
								 72 33 72 C34.66 72 36 70.66 36 69 L36 63 L45 63 L45 69 C45 70.66 46.34 72 48 72 C49.66 72 51 70.66
								 51 69 L51 30 C51 28.34 49.66 27 48 27 C46.34 27 45 28.34 45 30 L45 36 L36 36 L36 30 C36 28.34 34.66
								 27 33 27 C31.34 27 30 28.34 30 30 L30 36 L21 36 L21 30 C21 28.34 19.66 27 18 27 C16.34 27 15 28.34
								 15 30 L15 36 L6 36 L6 30 C6 28.34 4.66 27 3 27 ZM6 42 L15 42 L15 57 L6 57 L6 42 ZM21 42 L30 42 L30
								 57 L21 57 L21 42 ZM36 42 L45 42 L45 57 L36 57 L36 42 Z" class="st2"/>
				</g>
			</g>
			<g id="shape5-7" v:mID="5" v:groupContext="shape">
				<title>canvas</title>
				<rect x="0" y="0" width="72" height="72" class="st3"/>
			</g>
		</g>
	</g>
</svg>
